<svg xmlns="http://www.w3.org/2000/svg" xmlns:xlink="http://www.w3.org/1999/xlink" width="1685" zoomAndPan="magnify" viewBox="0 0 1263.75 1003.499975" height="1338" preserveAspectRatio="xMidYMid meet" version="1.0"><defs><clipPath id="9908b1f757"><path d="M 83.246094 63.394531 L 1181.609375 63.394531 L 1181.609375 939.347656 L 83.246094 939.347656 Z M 83.246094 63.394531 " clip-rule="nonzero"/></clipPath><clipPath id="e808631a87"><path d="M 270.652344 63.394531 L 993.957031 63.394531 C 1097.460938 63.394531 1181.363281 147.300781 1181.363281 250.800781 L 1181.363281 751.941406 C 1181.363281 855.445312 1097.460938 939.347656 993.957031 939.347656 L 270.652344 939.347656 C 167.152344 939.347656 83.246094 855.445312 83.246094 751.941406 L 83.246094 250.800781 C 83.246094 147.300781 167.152344 63.394531 270.652344 63.394531 Z M 270.652344 63.394531 " clip-rule="nonzero"/></clipPath><clipPath id="87c3709f1d"><path d="M 253.664062 117.617188 L 1009.285156 117.617188 L 1009.285156 884 L 253.664062 884 Z M 253.664062 117.617188 " clip-rule="nonzero"/></clipPath><clipPath id="03539d6f5e"><path d="M 994.460938 1 L 1262.824219 1 L 1262.824219 1002 L 994.460938 1002 Z M 994.460938 1 " clip-rule="nonzero"/></clipPath><clipPath id="7426d5ced7"><path d="M 0.191406 1 L 268.554688 1 L 268.554688 1002 L 0.191406 1002 Z M 0.191406 1 " clip-rule="nonzero"/></clipPath></defs><g clip-path="url(#9908b1f757)"><g clip-path="url(#e808631a87)"><path fill="#ffffff" d="M 83.246094 63.394531 L 1181.609375 63.394531 L 1181.609375 939.347656 L 83.246094 939.347656 Z M 83.246094 63.394531 " fill-opacity="1" fill-rule="nonzero"/></g></g><g clip-path="url(#87c3709f1d)"><path fill="#000000" d="M 959.648438 431.167969 C 961.785156 424.738281 963.574219 418.210938 965.015625 411.589844 C 966.453125 404.96875 967.539062 398.289062 968.269531 391.550781 C 969 384.8125 969.371094 378.054688 969.382812 371.277344 C 969.394531 364.5 969.046875 357.742188 968.339844 351.003906 C 967.628906 344.261719 966.566406 337.578125 965.148438 330.953125 C 963.730469 324.324219 961.964844 317.792969 959.851562 311.355469 C 957.738281 304.914062 955.289062 298.605469 952.503906 292.429688 C 949.71875 286.25 946.617188 280.238281 943.191406 274.390625 C 901.40625 201.640625 817.429688 164.21875 735.410156 181.804688 C 732.585938 178.660156 729.664062 175.617188 726.640625 172.664062 C 723.617188 169.714844 720.503906 166.867188 717.292969 164.121094 C 714.085938 161.375 710.789062 158.738281 707.40625 156.207031 C 704.023438 153.675781 700.5625 151.257812 697.023438 148.957031 C 693.484375 146.652344 689.875 144.464844 686.191406 142.398438 C 682.507812 140.332031 678.761719 138.386719 674.949219 136.566406 C 671.140625 134.742188 667.273438 133.046875 663.355469 131.476562 C 659.433594 129.910156 655.464844 128.46875 651.449219 127.160156 C 647.433594 125.851562 643.378906 124.675781 639.289062 123.628906 C 635.195312 122.585938 631.074219 121.675781 626.921875 120.902344 C 622.769531 120.128906 618.597656 119.492188 614.40625 118.992188 C 610.210938 118.488281 606.007812 118.125 601.789062 117.902344 C 597.570312 117.675781 593.351562 117.585938 589.128906 117.636719 C 584.90625 117.6875 580.6875 117.878906 576.480469 118.203125 C 572.269531 118.53125 568.074219 118.996094 563.890625 119.59375 C 559.710938 120.195312 555.554688 120.933594 551.425781 121.808594 C 547.292969 122.679688 543.191406 123.6875 539.128906 124.828125 C 535.0625 125.972656 531.035156 127.246094 527.054688 128.648438 C 523.070312 130.054688 519.140625 131.589844 515.257812 133.25 C 511.375 134.914062 507.550781 136.703125 503.785156 138.613281 C 500.019531 140.527344 496.320312 142.5625 492.6875 144.714844 C 489.054688 146.871094 485.496094 149.144531 482.015625 151.53125 C 478.53125 153.917969 475.128906 156.417969 471.808594 159.027344 C 468.488281 161.640625 465.257812 164.355469 462.113281 167.179688 C 458.972656 170 455.925781 172.921875 452.972656 175.945312 C 450.023438 178.964844 447.171875 182.082031 444.425781 185.289062 C 441.679688 188.496094 439.039062 191.792969 436.507812 195.171875 C 433.976562 198.554688 431.554688 202.011719 429.25 205.550781 C 426.945312 209.09375 424.757812 212.703125 422.6875 216.386719 C 420.621094 220.066406 418.671875 223.8125 416.847656 227.625 C 415.023438 231.433594 413.328125 235.300781 411.757812 239.21875 C 410.183594 243.140625 408.742188 247.109375 407.433594 251.125 C 400.792969 252.488281 394.246094 254.195312 387.789062 256.257812 C 381.332031 258.316406 375.003906 260.710938 368.800781 263.441406 C 362.597656 266.175781 356.558594 269.230469 350.683594 272.605469 C 344.804688 275.980469 339.125 279.660156 333.640625 283.640625 C 328.152344 287.621094 322.894531 291.878906 317.863281 296.417969 C 312.828125 300.960938 308.050781 305.753906 303.53125 310.804688 C 299.007812 315.851562 294.765625 321.125 290.804688 326.625 C 286.84375 332.125 283.1875 337.820312 279.832031 343.710938 C 237.59375 416.34375 247.183594 507.964844 303.542969 570.277344 C 301.398438 576.707031 299.605469 583.230469 298.15625 589.847656 C 296.707031 596.46875 295.613281 603.148438 294.875 609.882812 C 294.140625 616.621094 293.761719 623.375 293.742188 630.152344 C 293.726562 636.929688 294.066406 643.6875 294.765625 650.425781 C 295.46875 657.167969 296.523438 663.851562 297.9375 670.476562 C 299.351562 677.105469 301.109375 683.640625 303.21875 690.078125 C 305.328125 696.519531 307.769531 702.828125 310.550781 709.007812 C 313.332031 715.1875 316.429688 721.203125 319.851562 727.054688 C 361.6875 799.828125 445.71875 837.25 527.78125 819.640625 C 532.28125 824.707031 537.035156 829.519531 542.042969 834.078125 C 547.054688 838.640625 552.289062 842.921875 557.757812 846.925781 C 563.222656 850.925781 568.882812 854.628906 574.742188 858.03125 C 580.601562 861.429688 586.621094 864.511719 592.808594 867.269531 C 598.996094 870.03125 605.3125 872.453125 611.753906 874.542969 C 618.199219 876.628906 624.734375 878.371094 631.363281 879.761719 C 637.992188 881.152344 644.679688 882.191406 651.417969 882.871094 C 658.15625 883.554688 664.914062 883.875 671.6875 883.835938 C 755.753906 883.910156 830.230469 829.628906 855.910156 749.558594 C 862.550781 748.195312 869.097656 746.484375 875.550781 744.421875 C 882.007812 742.363281 888.335938 739.964844 894.535156 737.230469 C 900.738281 734.496094 906.777344 731.441406 912.652344 728.066406 C 918.527344 724.691406 924.210938 721.011719 929.695312 717.03125 C 935.179688 713.054688 940.4375 708.792969 945.46875 704.253906 C 950.503906 699.714844 955.28125 694.921875 959.804688 689.875 C 964.324219 684.824219 968.566406 679.550781 972.53125 674.054688 C 976.492188 668.554688 980.152344 662.859375 983.507812 656.972656 C 1025.234375 584.46875 1015.609375 493.34375 959.648438 431.167969 M 671.6875 833.6875 C 667.53125 833.695312 663.386719 833.519531 659.246094 833.164062 C 655.105469 832.808594 650.992188 832.273438 646.898438 831.558594 C 642.804688 830.84375 638.753906 829.953125 634.738281 828.886719 C 630.722656 827.816406 626.761719 826.574219 622.855469 825.160156 C 618.949219 823.746094 615.109375 822.167969 611.34375 820.417969 C 607.574219 818.667969 603.886719 816.757812 600.285156 814.6875 C 596.683594 812.617188 593.179688 810.394531 589.769531 808.019531 C 586.363281 805.644531 583.066406 803.121094 579.875 800.457031 L 584.40625 797.890625 L 736.917969 709.835938 C 737.863281 709.28125 738.769531 708.667969 739.632812 707.996094 C 740.5 707.324219 741.316406 706.597656 742.089844 705.820312 C 742.859375 705.042969 743.578125 704.21875 744.242188 703.347656 C 744.910156 702.476562 745.515625 701.566406 746.0625 700.617188 C 746.609375 699.667969 747.09375 698.6875 747.511719 697.675781 C 747.933594 696.664062 748.285156 695.628906 748.574219 694.574219 C 748.859375 693.515625 749.074219 692.441406 749.222656 691.355469 C 749.371094 690.273438 749.449219 689.179688 749.453125 688.085938 L 749.453125 473.003906 L 813.933594 510.3125 C 814.578125 510.636719 815.023438 511.253906 815.140625 511.972656 L 815.140625 690.199219 C 814.976562 769.375 750.84375 833.523438 671.6875 833.6875 M 363.339844 701.980469 C 361.257812 698.382812 359.335938 694.699219 357.574219 690.933594 C 355.8125 687.167969 354.21875 683.332031 352.789062 679.425781 C 351.363281 675.519531 350.109375 671.558594 349.03125 667.542969 C 347.949219 663.53125 347.046875 659.476562 346.320312 655.378906 C 345.59375 651.285156 345.046875 647.167969 344.683594 643.027344 C 344.316406 638.882812 344.132812 634.734375 344.128906 630.574219 C 344.125 626.417969 344.300781 622.265625 344.660156 618.125 C 345.019531 613.980469 345.558594 609.863281 346.277344 605.765625 L 350.804688 608.484375 L 503.46875 696.542969 C 504.410156 697.09375 505.382812 697.582031 506.386719 698.003906 C 507.390625 698.429688 508.421875 698.78125 509.472656 699.066406 C 510.523438 699.355469 511.589844 699.570312 512.671875 699.714844 C 513.75 699.855469 514.835938 699.929688 515.925781 699.929688 C 517.015625 699.929688 518.101562 699.855469 519.183594 699.714844 C 520.261719 699.570312 521.328125 699.355469 522.382812 699.066406 C 523.433594 698.78125 524.460938 698.429688 525.46875 698.003906 C 526.472656 697.582031 527.445312 697.09375 528.382812 696.542969 L 714.871094 589.003906 L 714.871094 663.464844 C 714.835938 664.289062 714.484375 664.945312 713.816406 665.429688 L 559.339844 754.542969 C 490.695312 794.097656 402.992188 770.578125 363.339844 701.980469 M 323.171875 369.691406 C 325.269531 366.070312 327.519531 362.546875 329.925781 359.125 C 332.335938 355.699219 334.886719 352.390625 337.582031 349.1875 C 340.28125 345.988281 343.109375 342.914062 346.078125 339.960938 C 349.042969 337.011719 352.132812 334.195312 355.347656 331.515625 C 358.5625 328.832031 361.886719 326.300781 365.320312 323.910156 C 368.757812 321.519531 372.289062 319.285156 375.921875 317.207031 C 379.554688 315.128906 383.269531 313.210938 387.066406 311.460938 C 390.867188 309.707031 394.734375 308.121094 398.675781 306.710938 L 398.675781 487.957031 C 398.660156 489.046875 398.71875 490.132812 398.847656 491.214844 C 398.980469 492.296875 399.183594 493.363281 399.457031 494.417969 C 399.730469 495.472656 400.074219 496.507812 400.484375 497.515625 C 400.894531 498.523438 401.371094 499.503906 401.914062 500.449219 C 402.457031 501.394531 403.058594 502.296875 403.722656 503.164062 C 404.382812 504.027344 405.101562 504.847656 405.875 505.613281 C 406.648438 506.382812 407.464844 507.097656 408.332031 507.757812 C 409.203125 508.417969 410.109375 509.015625 411.054688 509.554688 L 596.636719 616.644531 L 532.160156 653.949219 C 531.804688 654.136719 531.429688 654.230469 531.027344 654.230469 C 530.628906 654.230469 530.25 654.136719 529.894531 653.949219 L 375.722656 564.992188 C 307.210938 525.269531 283.714844 437.613281 323.171875 368.9375 Z M 852.890625 492.792969 L 666.703125 384.644531 L 731.03125 347.492188 C 731.386719 347.300781 731.765625 347.207031 732.167969 347.207031 C 732.566406 347.207031 732.945312 347.300781 733.300781 347.492188 L 887.472656 436.605469 C 890.402344 438.292969 893.265625 440.085938 896.066406 441.980469 C 898.871094 443.871094 901.601562 445.859375 904.261719 447.945312 C 906.921875 450.03125 909.507812 452.210938 912.015625 454.476562 C 914.519531 456.746094 916.945312 459.101562 919.285156 461.539062 C 921.625 463.980469 923.878906 466.5 926.039062 469.097656 C 928.203125 471.699219 930.273438 474.371094 932.246094 477.117188 C 934.21875 479.859375 936.09375 482.671875 937.867188 485.550781 C 939.644531 488.429688 941.316406 491.367188 942.882812 494.363281 C 944.449219 497.359375 945.910156 500.40625 947.261719 503.503906 C 948.613281 506.605469 949.855469 509.746094 950.984375 512.933594 C 952.113281 516.121094 953.128906 519.34375 954.03125 522.605469 C 954.933594 525.863281 955.71875 529.148438 956.386719 532.464844 C 957.058594 535.777344 957.609375 539.113281 958.042969 542.464844 C 958.476562 545.820312 958.792969 549.183594 958.988281 552.558594 C 959.183594 555.9375 959.261719 559.316406 959.21875 562.695312 C 959.175781 566.078125 959.015625 569.453125 958.734375 572.824219 C 958.453125 576.191406 958.050781 579.546875 957.535156 582.890625 C 957.015625 586.230469 956.378906 589.550781 955.625 592.847656 C 954.875 596.144531 954.003906 599.410156 953.023438 602.644531 C 952.039062 605.878906 950.941406 609.074219 949.730469 612.234375 C 948.519531 615.390625 947.203125 618.503906 945.773438 621.566406 C 944.34375 624.628906 942.804688 627.640625 941.164062 630.597656 C 939.519531 633.550781 937.777344 636.445312 935.929688 639.277344 C 934.082031 642.109375 932.136719 644.875 930.09375 647.566406 C 928.054688 650.261719 925.917969 652.882812 923.691406 655.425781 C 921.464844 657.96875 919.148438 660.429688 916.746094 662.8125 C 914.34375 665.191406 911.863281 667.484375 909.300781 669.6875 C 906.734375 671.894531 904.097656 674.003906 901.386719 676.023438 C 898.671875 678.039062 895.890625 679.960938 893.042969 681.78125 C 890.195312 683.601562 887.285156 685.320312 884.316406 686.9375 C 881.34375 688.550781 878.324219 690.058594 875.246094 691.460938 C 872.167969 692.863281 869.046875 694.15625 865.878906 695.335938 L 865.878906 514.085938 C 865.847656 513 865.742188 511.917969 865.570312 510.84375 C 865.398438 509.765625 865.15625 508.707031 864.84375 507.664062 C 864.535156 506.621094 864.160156 505.601562 863.714844 504.605469 C 863.273438 503.613281 862.769531 502.648438 862.203125 501.71875 C 861.636719 500.789062 861.011719 499.902344 860.328125 499.054688 C 859.648438 498.203125 858.914062 497.402344 858.128906 496.648438 C 857.34375 495.898438 856.511719 495.195312 855.636719 494.550781 C 854.757812 493.90625 853.84375 493.320312 852.890625 492.792969 M 917.066406 396.277344 L 912.535156 393.554688 L 760.175781 304.746094 C 759.230469 304.191406 758.25 303.699219 757.238281 303.277344 C 756.226562 302.851562 755.195312 302.492188 754.136719 302.207031 C 753.078125 301.917969 752.003906 301.703125 750.917969 301.558594 C 749.832031 301.414062 748.738281 301.339844 747.640625 301.339844 C 746.546875 301.339844 745.453125 301.414062 744.367188 301.558594 C 743.28125 301.703125 742.207031 301.917969 741.148438 302.207031 C 740.089844 302.492188 739.054688 302.851562 738.042969 303.277344 C 737.035156 303.699219 736.054688 304.191406 735.109375 304.746094 L 548.769531 412.289062 L 548.769531 337.828125 C 548.730469 337.441406 548.792969 337.074219 548.953125 336.722656 C 549.117188 336.371094 549.355469 336.085938 549.675781 335.863281 L 703.847656 246.898438 C 706.785156 245.207031 709.773438 243.625 712.820312 242.144531 C 715.871094 240.664062 718.964844 239.292969 722.109375 238.035156 C 725.253906 236.773438 728.4375 235.625 731.664062 234.589844 C 734.890625 233.554688 738.148438 232.636719 741.4375 231.832031 C 744.726562 231.027344 748.042969 230.339844 751.382812 229.769531 C 754.722656 229.199219 758.074219 228.75 761.445312 228.417969 C 764.816406 228.085938 768.195312 227.871094 771.582031 227.777344 C 774.96875 227.683594 778.351562 227.710938 781.738281 227.859375 C 785.121094 228.003906 788.496094 228.269531 791.863281 228.65625 C 795.226562 229.042969 798.574219 229.546875 801.90625 230.167969 C 805.234375 230.789062 808.539062 231.527344 811.816406 232.386719 C 815.09375 233.242188 818.335938 234.210938 821.542969 235.296875 C 824.753906 236.382812 827.917969 237.582031 831.042969 238.890625 C 834.167969 240.199219 837.242188 241.617188 840.265625 243.144531 C 843.289062 244.671875 846.253906 246.304688 849.164062 248.042969 C 852.070312 249.78125 854.914062 251.617188 857.691406 253.554688 C 860.46875 255.496094 863.175781 257.527344 865.8125 259.660156 C 868.445312 261.789062 871 264.007812 873.476562 266.320312 C 875.953125 268.632812 878.347656 271.027344 880.65625 273.507812 C 882.960938 275.988281 885.179688 278.546875 887.304688 281.183594 C 889.433594 283.820312 891.464844 286.53125 893.398438 289.3125 C 895.332031 292.089844 897.167969 294.9375 898.902344 297.847656 C 900.636719 300.757812 902.265625 303.726562 903.789062 306.753906 C 905.3125 309.78125 906.726562 312.855469 908.03125 315.980469 C 909.339844 319.109375 910.53125 322.277344 911.613281 325.488281 C 912.695312 328.699219 913.664062 331.941406 914.515625 335.222656 C 915.367188 338.5 916.101562 341.804688 916.722656 345.136719 C 917.339844 348.46875 917.839844 351.816406 918.222656 355.183594 C 918.601562 358.550781 918.863281 361.925781 919.007812 365.3125 C 919.152344 368.695312 919.171875 372.082031 919.078125 375.46875 C 918.980469 378.855469 918.761719 382.234375 918.425781 385.605469 C 918.089844 388.976562 917.636719 392.332031 917.0625 395.671875 Z M 513.585938 528.285156 L 449.109375 491.128906 C 448.421875 490.714844 448.019531 490.109375 447.898438 489.316406 L 447.898438 311.546875 C 447.902344 308.15625 448.027344 304.773438 448.269531 301.394531 C 448.515625 298.015625 448.878906 294.652344 449.359375 291.296875 C 449.839844 287.945312 450.441406 284.613281 451.160156 281.300781 C 451.875 277.992188 452.710938 274.710938 453.660156 271.457031 C 454.609375 268.207031 455.671875 264.992188 456.847656 261.816406 C 458.027344 258.640625 459.3125 255.507812 460.710938 252.421875 C 462.109375 249.339844 463.617188 246.304688 465.230469 243.328125 C 466.84375 240.347656 468.558594 237.429688 470.378906 234.574219 C 472.195312 231.714844 474.113281 228.925781 476.132812 226.203125 C 478.148438 223.484375 480.257812 220.835938 482.460938 218.265625 C 484.664062 215.691406 486.957031 213.199219 489.335938 210.789062 C 491.71875 208.378906 494.179688 206.058594 496.722656 203.820312 C 499.269531 201.585938 501.890625 199.441406 504.585938 197.394531 C 507.28125 195.34375 510.046875 193.390625 512.878906 191.535156 C 515.714844 189.679688 518.609375 187.929688 521.566406 186.277344 C 524.527344 184.628906 527.539062 183.085938 530.605469 181.648438 C 533.671875 180.210938 536.785156 178.886719 539.949219 177.671875 C 543.109375 176.453125 546.308594 175.351562 549.546875 174.363281 C 552.785156 173.371094 556.058594 172.496094 559.359375 171.738281 C 562.660156 170.980469 565.980469 170.339844 569.328125 169.816406 C 572.675781 169.292969 576.035156 168.890625 579.410156 168.605469 C 582.785156 168.320312 586.164062 168.152344 589.550781 168.109375 C 592.9375 168.0625 596.320312 168.136719 599.703125 168.328125 C 603.082031 168.523438 606.453125 168.835938 609.8125 169.265625 C 613.171875 169.699219 616.511719 170.25 619.832031 170.917969 C 623.152344 171.585938 626.445312 172.371094 629.710938 173.273438 C 632.972656 174.171875 636.203125 175.1875 639.394531 176.320312 C 642.589844 177.449219 645.738281 178.6875 648.84375 180.042969 C 651.949219 181.394531 655 182.855469 658.003906 184.425781 C 661.003906 185.992188 663.945312 187.664062 666.832031 189.441406 C 669.714844 191.21875 672.53125 193.097656 675.28125 195.074219 C 678.03125 197.050781 680.710938 199.121094 683.3125 201.285156 L 678.78125 203.855469 L 526.269531 291.910156 C 525.328125 292.464844 524.421875 293.078125 523.554688 293.75 C 522.691406 294.421875 521.871094 295.144531 521.101562 295.921875 C 520.328125 296.699219 519.613281 297.527344 518.945312 298.394531 C 518.28125 299.265625 517.675781 300.175781 517.128906 301.125 C 516.582031 302.074219 516.097656 303.054688 515.679688 304.066406 C 515.257812 305.078125 514.90625 306.113281 514.621094 307.171875 C 514.332031 308.230469 514.117188 309.300781 513.96875 310.386719 C 513.820312 311.472656 513.746094 312.5625 513.738281 313.660156 Z M 548.617188 452.761719 L 631.671875 404.882812 L 714.871094 452.765625 L 714.871094 548.523438 L 631.972656 596.40625 L 548.773438 548.523438 Z M 548.617188 452.761719 " fill-opacity="1" fill-rule="nonzero"/></g><g clip-path="url(#03539d6f5e)"><path fill="#ffbd59" d="M 1262.816406 547.980469 C 1236.875 547.980469 1216.796875 554.398438 1202.480469 567.226562 C 1188.253906 580.054688 1181.09375 598.183594 1181.09375 621.519531 L 1181.09375 818.054688 C 1181.09375 876.347656 1164.828125 921.527344 1132.289062 953.601562 C 1099.75 985.675781 1053.820312 1001.667969 994.601562 1001.667969 L 994.601562 937.242188 C 1031.789062 937.242188 1060.609375 927.757812 1081.15625 908.886719 C 1101.699219 890.011719 1111.925781 863.421875 1111.925781 829.117188 L 1111.925781 621.054688 C 1111.925781 577.175781 1125.035156 543.242188 1151.347656 519.441406 C 1177.65625 495.550781 1214.75 483.648438 1262.816406 483.648438 Z M 1132.289062 48.835938 C 1164.828125 80.722656 1181.09375 125.8125 1181.09375 184.105469 L 1181.09375 381.195312 C 1181.09375 404.625 1188.253906 422.660156 1202.480469 435.492188 C 1216.703125 448.320312 1236.875 454.738281 1262.816406 454.738281 L 1262.816406 519.160156 C 1214.75 519.160156 1177.5625 506.703125 1151.347656 481.695312 C 1125.035156 456.6875 1111.925781 421.449219 1111.925781 375.992188 L 1111.925781 174.15625 C 1111.925781 139.574219 1101.699219 112.796875 1081.15625 93.925781 C 1060.609375 75.050781 1031.789062 65.570312 994.601562 65.570312 L 994.601562 1.140625 C 1053.914062 1.050781 1099.839844 16.945312 1132.289062 48.835938 Z M 1132.289062 48.835938 " fill-opacity="1" fill-rule="nonzero"/></g><g clip-path="url(#7426d5ced7)"><path fill="#ffbd59" d="M 0.199219 454.761719 C 26.136719 454.761719 46.21875 448.34375 60.535156 435.515625 C 74.761719 422.6875 81.917969 404.558594 81.917969 381.222656 L 81.917969 184.6875 C 81.917969 126.394531 98.1875 81.214844 130.726562 49.140625 C 163.265625 17.066406 209.191406 1.074219 268.414062 1.074219 L 268.414062 65.5 C 231.226562 65.5 202.40625 74.984375 181.859375 93.855469 C 161.3125 112.730469 151.089844 139.320312 151.089844 173.625 L 151.089844 381.6875 C 151.089844 425.570312 137.980469 459.5 111.667969 483.300781 C 85.359375 507.195312 48.265625 519.09375 0.199219 519.09375 Z M 130.726562 953.90625 C 98.1875 922.019531 81.917969 876.929688 81.917969 818.636719 L 81.917969 621.546875 C 81.917969 598.117188 74.761719 580.082031 60.535156 567.25 C 46.3125 554.421875 26.136719 548.003906 0.199219 548.003906 L 0.199219 483.582031 C 48.265625 483.582031 85.453125 496.039062 111.667969 521.046875 C 137.980469 546.054688 151.089844 581.292969 151.089844 626.75 L 151.089844 828.585938 C 151.089844 863.167969 161.3125 889.945312 181.859375 908.816406 C 202.40625 927.691406 231.226562 937.171875 268.414062 937.171875 L 268.414062 1001.601562 C 209.101562 1001.691406 163.171875 985.796875 130.726562 953.90625 Z M 130.726562 953.90625 " fill-opacity="1" fill-rule="nonzero"/></g></svg>